<?xml version="1.0" encoding="UTF-8"?>
<!-- Generator: visioncortex VTracer 1.0.0-alpha.4 -->
<svg xmlns="http://www.w3.org/2000/svg" viewBox="0 0 512 512">

<path d="M401,57c2.39-2.39,3.34-3.68,4-7c-1.67,0-3.33,0-5,0c0-1,0-2,0-3c1.67,.33,3.33,.67,5,1c0-2,0-4,0-6c-.67-.33-1.33-.67-2-1c-2.03,2.03-2.12,2-5,2c.26-6.67,.9-11.17-7-12c-.33,1.33-.67,2.67-1,4c1.67,.33,3.33,.67,5,1c-.14,8.12,1.26,13.79,5,21c.33,0,.67,0,1,0Z" fill="#EEE1C6"/>
<path d="M401,57c-.33,0-.67,0-1,0c-3.74-7.21-5.14-12.88-5-21c-1.67-.33-3.33-.67-5-1v3c3.31,10.75-3.39,24.39-11,32c0,.33,0,.67,0,1c-5.44,1.81-6.62,4.44-13,4c-1.73,3.47-8.2,2.94-12,4c3.56,2.37,5.85,2.02,9.83,3.06c7.63,1.99,16.08,6.16,20.64,12.85c2.42,3.53,4.86,9.77,5.93,13.93c1.18,4.56,.76,13.32,3.6,16.16c2.14-4.29,1.32-7.24,2.15-11.58c.34-1.76,1.38-3.09,1.84-4.76c1.86-6.72,2.95-12.2,7.9-17.62c4.73-5.18,11.5-7.93,18.11-10.04c1.4-.44,4.96-.26,6-1c.22-.16,.84-1.67,1-2c-8.99,.43-34.74-7.93-30-20V57Z" fill="#C68A1F"/>
<path d="M379,70c7.61-7.61,14.31-21.25,11-32c-2.88,0-2.97,.03-5-2c-1,.33-2,.67-3,1c-.09,1.32-.79,6.76,0,8c2.87,4.51,5.53,1.41,3,9c-.33-1.33-.67-2.67-1-4c-3.57,3.57-3.85,9.18-8,14c2.7,2.7,2.7,3.3,0,6h3Z" fill="#EFEEE5"/>
<path d="M376,70c-2.98-.77-5.98-1.41-9-2c-1.74,8.7-8.92,6.18-16,6c0,3,0,6,0,9c3.45,1.15,3.43,1.46,4,5c5.39,.28,5.46-1.49,10-3c1.93,1.93,3.54,2.85,6,4c0,1,0,2,0,3c5.01-3.34,9.16-.52,11,5c-1.67-.33-3.33-.67-5-1c0,5.57,3.92,7,9,7c0,2.33,0,4.67,0,7c.67,.33,1.33,.67,2,1c0,2.33,0,4.67,0,7c.67,.33,1.33,.67,2,1c-.1,3.49,.22,6.59,1,10c1.67,0,3.33,0,5,0c2.19-4.1,3.12-8.48,4-13c2,2,2,2,4,3c1.21-2.33,2.17-4.5,3-7c-1-.33-2-.67-3-1c-2.03,2.03-2.12,2-5,2c3.49-3.49,.44-4.82,2-8c.33-.67,1.62-1.57,2.14-2.26c1.6-2.09,1.62-5.22,1.86-7.74c2.03,2.03,2.12,2,5,2c.69-2.5,1-4.41,1-7c1.13,1.13,1.13,1.13,7,2c.69-2.5,1-4.41,1-7c5.02-.37,10.68-.21,15-3c.81-2.62,.81-2.62,1-5c-2.29-.76-3.32-2.3-5-3c-1.45-.6-5.05,.17-6.82-.12C421,73.53,406.04,67.19,405,66c-2.37-2.7,1.35-4.44-4-8c-4.74,12.07,21.01,20.43,30,20c-.16,.33-.78,1.84-1,2c-1.04,.74-4.6,.56-6,1c-6.61,2.11-13.38,4.86-18.11,10.04c-4.95,5.42-6.04,10.9-7.9,17.62c-.46,1.67-1.5,3-1.84,4.76c-.83,4.34-.01,7.29-2.15,11.58c-2.84-2.84-2.42-11.6-3.6-16.16c-1.07-4.16-3.51-10.4-5.93-13.93c-4.56-6.69-13.01-10.86-20.64-12.85c-3.98-1.04-6.27-.69-9.83-3.06c3.8-1.06,10.27-.53,12-4c6.38,.44,7.56-2.19,13-4c0-.33,0-.67,0-1h-3Z" fill="#EEE1C6"/>
<path d="M334,127c0-.13,0-.25-.01-.38c-.28-3.71-14.69-13.23-17.61-16.12c-3.86-3.81-8.92-10.81-13.38-13.5c-.83-.5-2.18-.49-3-1c-3.22-1.99-7.07-7.07-9.86-9.86c-2.5-2.5-5.28-3.28-7.5-5.5C268.72,66.72,262.06,56.26,241,65c-4.46,1.85-10.37,6.1-12,11c5.06-1.78,6.81-4.51,10.82-7.6c6.19-4.78,14.83-3.49,22.18-3.4c1.71,3.41,4.1,2.6,6.58,4.98c1.21,1.16,1.43,2.97,2.42,4.02c.84,.89,3.22,1.12,4,2c.52,.59,.47,2.47,1,3c.48,.48,2.33,.6,3,1c3.31,1.98,6.88,6.46,10,9c8.72,7.1,18.99,15.43,26,24c2.55,3.12,6.26,2.89,8.67,6.5c1.22,1.83,5.33,2.3,5.33,4.5c2,2,2,2,5,3Z" fill="#ACB8AF"/>
<path d="M329,124c0-2.2-4.11-2.67-5.33-4.5c-2.41-3.61-6.12-3.38-8.67-6.5c-7.01-8.57-17.28-16.9-26-24c-3.12-2.54-6.69-7.02-10-9c-.67-.4-2.52-.52-3-1c-.53-.53-.48-2.41-1-3c-.78-.88-3.16-1.11-4-2c-.99-1.05-1.21-2.86-2.42-4.02C266.1,67.6,263.71,68.41,262,65c-7.35-.09-15.99-1.38-22.18,3.4c-4.01,3.09-5.76,5.82-10.82,7.6c-4.19,1.4-7.79,6.79-11,10c-1.42,4.26-15.6,16.84-19.81,19.72c-.97,.66-2.27,.7-3.19,1.28c-1.86,1.17-7.25,9.26-9.76,11.49c-1.34,1.19-2.89,1.55-4.24,2.51c-1.59,1.13-1.85,2.79-3,4c-.81,.85-2.98,1.26-4,2c-1.63,1.17-2.84,3.01-4.42,4.29c-1.79,1.44-3.97,2.1-5.58,3.71c-3,1-3,1-5,4c-1,3-1,3-2,4h2c-3.02,8.15-34,28.64-34,35c2.47-1.15,4.05-2.05,6-4c-1,3-1,3-3,5c0,.56,.2,2.59,0,3c-.83,1.74-7.2,6.13-9,8l-3,3v2c5.23,0,5.3-4.79,8-7c.49-.4,2.33-.78,3-1c0-1.56,28.16-27.05,31-28c0-1.82,4.06-4.37,5.55-5.67c6.16-5.39,11.92-11.41,18.01-16.9c2.14-1.94,4.87-2.77,6.88-4.74c5.46-5.35,11.23-10.43,16.64-15.77c1.26-1.25,2.59-4.06,3.92-4.92c1.06-.69,2.41-.71,3.52-1.6c2.32-1.84,3.76-4.04,6.48-5.4c3.95-3.95,8.52-9.87,13-13c2.12-1.48,4.22-2.39,6.18-4.21c3.02-2.81,5.3-7.29,9.02-9.17c3.58-1.81,8.98-1.44,11.8,1.38v1c7.85,3.2,15.78,13.43,22,19c.98,.88,2.87,1.24,4,2c2.36,1.59,3.69,4.55,5.74,6.46c3.28,3.07,6.95,5.23,10.26,8.54c10.1,5.05,21.65,20.9,31,28c1.41,1.07,3.24,1.55,4.54,2.85c.91,.93,.86,2.12,1.46,3.15c2.14,3.68,8.94,6.25,12.16,9.16c5.33,4.81,9.74,10.45,14.75,15.5c1.62,1.64,3.26,2.14,5.09,3.34c3.7,2.43,7.77,7.77,11,11l2,2h1c.33-.33,.67-.67,1-1c4.7,1.57,6.41,5.66,6.89,10.32c.38,3.7-.13,7.39,.12,11.08c.37,5.47,1.26,10.43,1.12,16.07c-.13,5.57-1.27,10.86-1.27,16.57c.01,4.92-.23,9.96,.09,14.86c.22,3.25,1.17,6.22,1.18,9.6c.06,17.94,.51,36.16-.02,54.07c-.12,4.04-1.2,7.8-1.23,11.97c-.04,5.08,.72,9.51,1.12,14.46c.24,2.97-1.09,25.17-2,27c0,3.88-.84,6.16,2,9c2.36-2.36,2.49-3.78,3-7l1-1c.38-2.75,1.24-6.25,1-9c-.18-2.09-1.05-4.1-1.13-6.29c-.32-9.02,0-18.16,0-27.19c-.01-27.8-.82-55.86,.03-83.63c.09-3.07,1.11-5.88,1.23-8.89c.46-10.95-3.49-23.07-.13-34c.67,1,1.33,2,2,3c0-.67,0-1.33,0-2c1.67,.33,3.33,.67,5,1c0-1.36-3.08-3.15-4-5c6.23,1.78,8.09,8.56,14,9c3.02-6.03-2.6-8.58-6.73-12.04c-3.53-2.95-6.04-6.81-9.48-9.88c-16.88-15.02-32.97-30.43-49.5-45.71c-6.07-5.62-11.95-10.84-17.75-16.66c-2.32-2.33-5.03-3.69-6.54-6.71c1.33,.33,2.67,.67,4,1ZM160,142c.33-.67,.67-1.33,1-2c0,.67,0,1.33,0,2c-.33,0-.67,0-1,0Zm0,0h0Z" fill="#0F3428"/>
<path d="M259,79c-2.82-2.82-8.22-3.19-11.8-1.38c-3.72,1.88-6,6.36-9.02,9.17c-1.96,1.82-4.06,2.73-6.18,4.21c-4.48,3.13-9.05,9.05-13,13c-2.67,4-6.33,6.99-9,11c1.98,0,2.38-2.54,4.5-2.92c6.39-1.15,10.55,4.69,12.5-5.08c-1.97-.98-2.81-1-5-1c.53-.77,2.27-3.64,3-4c.84-.42,2.71,.25,3.89-.31C231.9,100.3,242,91.41,242,88c-2,2-2,2-5,3c2.24-2.88,6.24-6.11,8-9c.36-.59,.58-2.64,1-3c1.79-1.55,10.69-.42,13,0Z" fill="#E2E6E0"/>
<path d="M259,80V79c-2.31-.42-11.21-1.55-13,0c-.42,.36-.64,2.41-1,3c-1.76,2.89-5.76,6.12-8,9c3-1,3-1,5-3c0,3.41-10.1,12.3-13.11,13.69c-1.18,.56-3.05-.11-3.89,.31c-.73,.36-2.47,3.23-3,4c2.19,0,3.03,.02,5,1c-1.95,9.77-6.11,3.93-12.5,5.08c-2.12,.38-2.52,2.92-4.5,2.92c-5.92,4.54-5.92,4.54-7,9c-2.56,1.25-2.56,1.25-5,2c0,1.33,0,2.67,0,4c-6.37,0-14.45,10.45-19,15c.33,.33,.67,.67,1,1c-5.17,.59-6,3.29-10,5c-.46,.2-1.55-.2-2,0c-3.15,1.41-6.05,8-10,8c-2.84,.95-31,26.44-31,28c-2.2,4.29-8.34,7.86-9.46,11.69c-1.49,5.09-.67,12.34-.66,17.7c.02,11.58,.02,23.18,.03,34.76c.01,42.62,.05,85.24,.09,127.85c.33,0,.67,0,1,0c1,1,2,2,3,3c-.33-2.33-.67-4.67-1-7c3.95,7.38,3.13,10.73,12,14c9.38-3.12,26.32-.68,36.69-.93c4.78-.11,9.32-1.63,14.09-1.98c1.78-.13,5.04,1.2,6.22,.91c1.92-.48,3.98-3.48,5-5c.67,1,1.33,2,2,3c0-4.83,2.88-8.61,3.08-13.8c.34-8.67-2.14-16.7-2.11-25.33c.01-5.55,1.56-10.9,1.94-16.43c.16-2.33-.68-4.17-.69-6.38c-.01-1.46,.58-2.67,.78-4.06c.67-4.62,.05-10.28,0-15c2.55,7.86,1.1,19.16,1.09,27.47c-.02,19.51-.09,39.02-.09,58.53c-.33,0-.67,0-1,0c0,.33,0,.67,0,1c1,.33,2,.67,3,1c-.04-16-2.86-78.45,3-89c0-3.11-.17-5.11-1-8c-.33,1.33-.67,2.67-1,4c-.67,0-1.33,0-2,0c1.49-5.95,3.64-12.64,8-17c-2.39-2.39-2.04-2.87-1-6c.67,1.33,1.33,2.67,2,4c1.09-3.27,.71-4.09-1-7c6.62,0,5.87-1.56,11-3c1.07-.3,3.03,.4,4,0c1.67-.69,2.72-2.24,5-3c0-1.67,0-3.33,0-5c5.96,1.65,6.37-.99,11.47-1.2c7.13-.28,15.55-.35,22.63,.31c1.02,.09,4.15,.31,4.9,.89c.4,.31,.6,1.72,1,2c.99,.7,3.76,.43,5,1c1.28,.59,2.69,2.64,4,3c.69,.19,2.99-.68,3.81-.78c4.89-.57,8.69,2.29,10.19,6.78c-1,.33-2,.67-3,1c1.37,2.95,2.99,5.44,5,8c.33-.33,.67-.67,1-1c4.9,2.12,10,.71,10,7c-1,0-2,0-3,0c0,4.98,5.38,7.62,1,12c-.78-3.25-.91-6.46-4-8c-.33,.67-.67,1.33-1,2c.66,5.04,1.37,4.34,3,8c1.22,2.75,.2,17.01,.19,20.86c-.04,22.71-.1,45.43-.19,68.14c8.16,1.92,17.29,1.1,25.64,1.09c14.46-.02,28.91-.05,43.36-.09c4.24,0,7.12-3.71,11-5c0-1.77,2.7-3.74,4-5c.7-3.15,1.76-6.03,3-9c0-59.33,0-118.67,0-178c-3.22-1.61-3.83-1.5-5-5l-2-2c-2.66-1.19-5.32-4.32-7-5c-.73-.3-2.21,.24-3,0c-1.52-.46-3.8-2.84-4.83-4.03c-.78-.89-3.3-4.65-4.17-4.97c-2.08-.77-5.27,1.05-7,2c-2.44-2.44-2.8-2.07-6-1c.45-4.24,.89-5.54,5-7c-2.66-2.52-4.81-6.48-7.78-8.42c-1.59-1.04-4.05-.81-5.22-1.58c-1.33-.88-3.84-6.5-5.35-8.2c-2.69-3.03-20.49-18.75-23.65-19.8c1,1.67,2,3.33,3,5c-6.28-.87-9.03-2.93-11-9c1-.33,2-.67,3-1c-1.33-1.33-2.67-2.67-4-4c0,.33,0,.67,0,1c-4.64-2.17-13.46-9.37-15-14c-2.39,0-3.04,.69-5,2c-3.49-1.93-6.36-1.79-10-3c.33-1.33,.67-2.67,1-4c2-.33,4-.67,6-1c0-.33,.11-1.78,0-2c-.1-.19-10.18-9.22-10.86-9.64c-2.92-1.78-6.34-2.74-9.3-4.69c-1.81-1.2-3.36-3.11-4.84-4.67c1.33-.67,2.67-1.33,4-2Z" fill="#FAF6EE"/>
<path d="M301,116c-3.31-3.31-6.98-5.47-10.26-8.54c-2.05-1.91-3.38-4.87-5.74-6.46c-1.13-.76-3.02-1.12-4-2c-6.22-5.57-14.15-15.8-22-19c-1.33,.67-2.67,1.33-4,2c1.48,1.56,3.03,3.47,4.84,4.67c2.96,1.95,6.38,2.91,9.3,4.69c.68,.42,10.76,9.45,10.86,9.64c.11,.22,0,1.67,0,2c-2,.33-4,.67-6,1c-.33,1.33-.67,2.67-1,4c3.64,1.21,6.51,1.07,10,3c1.96-1.31,2.61-2,5-2c1.54,4.63,10.36,11.83,15,14c0-.33,0-.67,0-1c-.67-.33-1.33-.67-2-1c0-1.67,0-3.33,0-5Z" fill="#EFEEE5"/>
<path d="M164,135c1.61-1.61,3.79-2.27,5.58-3.71c1.58-1.28,2.79-3.12,4.42-4.29c1.02-.74,3.19-1.15,4-2c1.15-1.21,1.41-2.87,3-4c1.35-.96,2.9-1.32,4.24-2.51c2.51-2.23,7.9-10.32,9.76-11.49c.92-.58,2.22-.62,3.19-1.28C202.4,102.84,216.58,90.26,218,86c-5.28,.39-13.06,10.86-17.49,14.49c-1.07,.88-2.4,.86-3.51,1.51c-.79,.46-2.18,2.87-2.94,3.67c-1.86,1.98-4.21,3.42-6.06,5.33c-2.08,2.14-3.41,4.69-5.73,6.75c-2.28,2.02-5.12,2.6-7.27,4.25c-1.65,1.27-5.83,6.85-7.93,8.9c-1.12,1.1-3.07,2.41-3.07,4.1Z" fill="#ACB8AF"/>
<path d="M210,115c2.67-4.01,6.33-7,9-11c-2.72,1.36-4.16,3.56-6.48,5.4c-1.11,.89-2.46,.91-3.52,1.6c-1.33,.86-2.66,3.67-3.92,4.92c-5.41,5.34-11.18,10.42-16.64,15.77c-2.01,1.97-4.74,2.8-6.88,4.74c-6.09,5.49-11.85,11.51-18.01,16.9c-1.49,1.3-5.55,3.85-5.55,5.67c3.95,0,6.85-6.59,10-8c.45-.2,1.54,.2,2,0c4-1.71,4.83-4.41,10-5c-.33-.33-.67-.67-1-1c4.55-4.55,12.63-15,19-15c0-1.33,0-2.67,0-4c2.44-.75,2.44-.75,5-2c1.08-4.46,1.08-4.46,7-9Z" fill="#CAD3C9"/>
<path d="M381,189c-3.23-3.23-7.3-8.57-11-11c-1.83-1.2-3.47-1.7-5.09-3.34c-5.01-5.05-9.42-10.69-14.75-15.5c-3.22-2.91-10.02-5.48-12.16-9.16c-.6-1.03-.55-2.22-1.46-3.15c-1.3-1.3-3.13-1.78-4.54-2.85c-9.35-7.1-20.9-22.95-31-28c0,1.67,0,3.33,0,5c.67,.33,1.33,.67,2,1c1.33,1.33,2.67,2.67,4,4c-1,.33-2,.67-3,1c1.97,6.07,4.72,8.13,11,9c-1-1.67-2-3.33-3-5c3.16,1.05,20.96,16.77,23.65,19.8c1.51,1.7,4.02,7.32,5.35,8.2c1.17,.77,3.63,.54,5.22,1.58c2.97,1.94,5.12,5.9,7.78,8.42c-4.11,1.46-4.55,2.76-5,7c3.2-1.07,3.56-1.44,6,1c1.73-.95,4.92-2.77,7-2c.87,.32,3.39,4.08,4.17,4.97c1.03,1.19,3.31,3.57,4.83,4.03c.79,.24,2.27-.3,3,0c1.68,.68,4.34,3.81,7,5Z" fill="#E2E6E0"/>
<path d="M334,127c-3-1-3-1-5-3c-1.33-.33-2.67-.67-4-1c1.51,3.02,4.22,4.38,6.54,6.71c5.8,5.82,11.68,11.04,17.75,16.66c16.53,15.28,32.62,30.69,49.5,45.71c3.44,3.07,5.95,6.93,9.48,9.88c4.13,3.46,9.75,6.01,6.73,12.04c-5.91-.44-7.77-7.22-14-9c.92,1.85,4,3.64,4,5c1.44,1.44,6,4.39,6,6c3.21,0,10.6-.79,9-6c-.15-.49-1.63-1.49-2-2c-1.36-1.86-1.79-3.83-3.78-5.31c-4.05-3.01-8.57-6.09-12.22-9.69c-2.09-2.06-3.51-4.54-5.87-6.43c-2.69-2.17-8.38-4.61-10.13-7.57c-1.02-1.73-.89-3-2.44-4.56c-6.99-7.07-15.07-13.86-22.56-20.44c-1.46-1.28-3.82-2.52-5-4c-.87-1.09-1.12-2.25-2.23-3.29C348.12,141.42,337.5,134.5,335,127h-1Z" fill="#0A2018"/>
<path d="M408,216c.86,1.05,2.76,3.51,4,4c5.33,2.1,12.1-5.86,10-12c-.18-.52-.7-2.71-1-3c-1.88-1.8-5.7-2.66-8-5c-3.72-3.78-7.8-7.65-11.39-11.48c-1.33-1.42-3.1-4.59-4.61-5.52c-5.42-3.36-10.33-7.4-14.88-12.14c-4.45-4.64-9.05-8.88-13.51-13.4c-1.35-1.37-3.1-4.55-4.61-5.46c-1.97-1.19-3.18-1.11-5-2.87c-6.26-6.06-16.3-19.56-24-22.13c2.5,7.5,13.12,14.42,18.77,19.71c1.11,1.04,1.36,2.2,2.23,3.29c1.18,1.48,3.54,2.72,5,4c7.49,6.58,15.57,13.37,22.56,20.44c1.55,1.56,1.42,2.83,2.44,4.56c1.75,2.96,7.44,5.4,10.13,7.57c2.36,1.89,3.78,4.37,5.87,6.43c3.65,3.6,8.17,6.68,12.22,9.69c1.99,1.48,2.42,3.45,3.78,5.31c.37,.51,1.85,1.51,2,2c1.6,5.21-5.79,6-9,6h-3Z" fill="#9EADA3"/>
<path d="M157,143c1-1,1-1,2-4c-1.03,.17-3.15,.43-4,1c-.65,.44-1.44,2.31-2,3c-3.18,3.95-7.71,7.94-11.37,11.5c-1.73,1.67-3.77,2.2-5.63,3.5c-2.74,1.91-7.66,9.44-11,10c-2.08,.35-2.84-2.04-5.06-.13c-3.15,2.71-8.99,8.02-11.38,11.63c-.81,1.22-.21,2.29-.56,3.5c-.28,.98-2.51,3.22-3.26,4.05c-2.87,3.19-5.54,3.73-8.74,5.95c-1.07,.74-2.12,2.95-3,4c-3.82,4.56-8.77,8.77-13,13c.81,2.44,.67,2.83,3,4c1.04-2.08,.9-4.09,1.83-6.07c1.58-3.36,7.68-7.77,11.17-8.93c2.02-4.04,8.04-6.89,11.3-10.25c1.72-1.77,4.36-3.75,5.7-5.75c.86-1.29,1.04-2.74,2.24-3.88c3.34-3.16,8.58-5.94,12.31-9.05c2.87-2.41,4.72-5.64,7.5-8.09c2.37-2.09,5.37-2.92,7.8-4.91c4.99-4.1,9.56-9.48,14.15-14.07Z" fill="#C3D0BD"/>
<path d="M160,142c.33,0,.67,0,1,0c0-.67,0-1.33,0-2c-.33,.67-.67,1.33-1,2l-1,1h-2c-4.59,4.59-9.16,9.97-14.15,14.07c-2.43,1.99-5.43,2.82-7.8,4.91c-2.78,2.45-4.63,5.68-7.5,8.09c-3.73,3.11-8.97,5.89-12.31,9.05c-1.2,1.14-1.38,2.59-2.24,3.88c-1.34,2-3.98,3.98-5.7,5.75c-3.26,3.36-9.28,6.21-11.3,10.25c-2.02,2.72-9.25,8.6-10,10c-.11,.21,0,1.68,0,2c7.65-7.65,25.94-25.77,35-30c0,.67,0,1.33,0,2c.67,.33,1.33,.67,2,1c1.67-1.67,3.33-3.33,5-5c2-2,2-2,3-5c-1.95,1.95-3.53,2.85-6,4c0-6.36,30.98-26.85,34-35l1-1Z" fill="#0A2018"/>
<path d="M119,190c1.8-1.87,8.17-6.26,9-8c.2-.41,0-2.44,0-3c-1.67,1.67-3.33,3.33-5,5c-.67-.33-1.33-.67-2-1c0-.67,0-1.33,0-2c-9.06,4.23-27.35,22.35-35,30c0-.32-.11-1.79,0-2c.75-1.4,7.98-7.28,10-10c-3.49,1.16-9.59,5.57-11.17,8.93c-.93,1.98-.79,3.99-1.83,6.07v1c1.85,0,3.23,1.48,5,2c6.42,1.89,9.7-4.13,14-7c.33,1,.67,2,1,3V376c.33,0,.67,0,1,0c-.04-35.33-.07-70.67-.09-106c-.01-19.26-1.56-39.94,1.09-59c.67,0,1.33,0,2,0c-.03,3.45-1.11,14.89,1,17c1.27-4.3,.82-8.66,2-13c-.11,5.58,.98,10.53,1.11,15.93c.2,8-.06,16.07-.11,24.07h1c-.07-15.92-.08-31.58,.8-47.47c.18-3.11-1.16-6.09-.55-9.15c.44-2.22,2.08-4,3.75-5.38l3-3Z" fill="#1E3C32"/>
<path d="M118,379c-.33,0-.67,0-1,0c-.04-42.61-.08-85.23-.09-127.85c-.01-11.58-.01-23.18-.03-34.76c-.01-5.36-.83-12.61,.66-17.7c1.12-3.83,7.26-7.4,9.46-11.69c-.67,.22-2.51,.6-3,1c-2.7,2.21-2.77,7-8,7c-1.85,7.69-1.15,16.3-1.17,24.17c-.04,13.42-.05,26.84-.06,40.26c-.02,25.87-.06,51.73-.1,77.6c-.02,12.37-.92,25.42-.04,37.71c.21,3.03,1.31,5.1,3.37,7.26v-3Z" fill="#9EADA3"/>
<g fill="#0A2018">
<path d="M391,376c.91-1.83,2.24-24.03,2-27c-.4-4.95-1.16-9.38-1.12-14.46c.03-4.17,1.11-7.93,1.23-11.97c.53-17.91,.08-36.13,.02-54.07c-.01-3.38-.96-6.35-1.18-9.6c-.32-4.9-.08-9.94-.09-14.86c0-5.71,1.14-11,1.27-16.57c.14-5.64-.75-10.6-1.12-16.07c-.25-3.69,.26-7.38-.12-11.08c-.48-4.66-2.19-8.75-6.89-10.32c-.33,.33-.67,.67-1,1c1.5,1.5,3.76,2.97,4.64,4.89c2.07,4.47,.47,22.28,.36,28.11c2.95,9.7,1.1,34.21,1.09,45.46c-.01,35.51-.05,71.03-.09,106.54h1Z"/>
<path d="M400,374V211c-.67-1-1.33-2-2-3c-3.36,10.93,.59,23.05,.13,34c-.12,3.01-1.14,5.82-1.23,8.89c-.85,27.77-.04,55.83-.03,83.63c0,9.03-.32,18.17,0,27.19c.08,2.19,.95,4.2,1.13,6.29c.24,2.75-.62,6.25-1,9l2,1l1-4Z"/>
<path d="M118,191l-2,2c-1.67,1.38-3.31,3.16-3.75,5.38c-.61,3.06,.73,6.04,.55,9.15c-.88,15.89-.87,31.55-.8,47.47c0,40.67,0,81.33,0,122c-1.99-1.99-3.93-1.59-5.41-3.5c-1.93-2.49-.83-15.26,1.41-17.5c.67,.67,1.33,1.33,2,2c-.09-3.72,1.12-7.61,1-11c-.05-1.52-.82-3.32-.98-4.92c-.41-4.16,.19-7.93-1.02-12.08c.08,3.46,.67,8.33-2,11c-2.44-7.61-1.09-17.37,1-25c.67,2.67,1.33,5.33,2,8c-.15-7.9,1.26-15.49,1.08-23.5c-.07-3-.93-5.77-1.12-8.77c-.69-10.84-1.52-26.25,1.04-36.73c.05-8,.31-16.07,.11-24.07c-.13-5.4-1.22-10.35-1.11-15.93c-1.18,4.34-.73,8.7-2,13c-2.11-2.11-1.03-13.55-1-17c-.67,0-1.33,0-2,0c-2.65,19.06-1.1,39.74-1.09,59c.02,35.33,.05,70.67,.09,106c-.33,0-.67,0-1,0v3c4.62,3.42,1.76,6.82,4,10c.28,.39,1.62,.62,2,1c3.65,3.65,7.04,9.52,12,12c1.4,.7,3.88,.45,5.48,1.02c3.45,1.24,1.76,1.98,6.52,1.98c61.16,.05,122.33,.06,183.49,.1c11.65,.01,23.29,.01,34.94,.02c5.93,.01,12.62,.61,18.45-.39c4.05-.69,9.47-2.77,13.12-4.73v-2h0c-3.32,2.22-14.1,5.57-18,5c-2.94-.43-5.97-1.47-9-1c-12.15,1.89-24.73,1.13-37.07,1.13c-11.59-.01-23.52,.6-35.08-.13c-5.74-.37-11.06-2.28-16.86-2.46c-8.66-.27-16.62,2.36-24.99,2.59c-20.17,.55-41.09,.7-61.25-.04c-6.08-.22-12.52-2.13-18.51-2.22c-8.76-.14-17.11,2.86-25.82,2.29c-2.83-.19-4.67-1.87-7.13-2.27c-8.41-1.37-16.91-7.13-18.29-15.89c1,.67,2,1.33,3,2c-.49-2.13-1.61-4.39,0-6c2.97,6.62,9.99,12.92,16.8,15.42c2.49,.91,4.72,.28,7.2,.58c12.36,1.49,24.56,1.12,37.05,1.13c9.87,.02,20.22,.64,29.95-1.13c-10.22-6.81-56.51,1.79-72-3c-7.42,0-10.22-7.46-15-12c-2.06-2.16-3.16-4.23-3.37-7.26c-.88-12.29,.02-25.34,.04-37.71c.04-25.87,.08-51.73,.1-77.6c.01-13.42,.02-26.84,.06-40.26c.02-7.87-.68-16.48,1.17-24.17v-2l2-2Z"/>
</g>
<g fill="#4A5D56">
<path d="M384,191h-1c1.17,3.5,1.78,3.39,5,5c0,59.33,0,118.67,0,178c.33,0,.67,0,1,0c0-50,0-100,0-150c.11-5.83,1.71-23.64-.36-28.11c-.88-1.92-3.14-3.39-4.64-4.89Z"/>
<path d="M391,376h-1l-1,1c-2.14,2.14-2.43,3.13-3,6c-.33,0-.67,0-1,0c-1.3,1.26-4,3.23-4,5l-3,4l-1,1v1c4.43-1.39,6.87-3.61,10-7c.67,1,1.33,2,2,3c1-1,2-2,3-3c-1.01,5.05-4.05,6.88-8,10l-1,1v2h1c7.52-2.51,15.42-14.18,15-22l-2-1l-1,1c-.51,3.22-.64,4.64-3,7c-2.84-2.84-2-5.12-2-9Z"/>
</g>
<path d="M411,216c0-1.61-4.56-4.56-6-6c-1.67-.33-3.33-.67-5-1c0,.67,0,1.33,0,2V374c.33,0,.67,0,1,0c-.04-38.38-.08-76.76-.09-115.14c-.01-11.68-2-38.87,1.09-48.86c.67,.67,1.33,1.33,2,2l4,4h3Z" fill="#5A6B64"/>
<path d="M103,213c-.33-1-.67-2-1-3c-4.3,2.87-7.58,8.89-14,7c-1.77-.52-3.15-2-5-2c2.07,6.22,9.05,6.98,13,2c.33,1,.67,2,1,3c1,0,2,0,3,0c0,11,0,22,0,33c.67-.33,1.33-.67,2-1c-.05-10.44-2.1-29.6,1-39Z" fill="#CAD3C9"/>
<path d="M404,212c-.67-.67-1.33-1.33-2-2c-3.09,9.99-1.1,37.18-1.09,48.86c.01,38.38,.05,76.76,.09,115.14c-.33,0-.67,0-1,0l-1,4c.42,7.82-7.48,19.49-15,22c-1.45,2.9-5.06,3.48-8,5c0,.67,0,1.33,0,2c3.45-1.15,10.63-4.25,13-7c1.4-1.62,2.38-3.36,4.01-4.84c1.33-1.21,4.05-2.74,4.99-4.16c1.47-2.22,.16-2.58,3-4c0-2.33,0-4.67,0-7c0-2.38,2.1-4.92,2.24-7.73c.53-10.08-.05-20.5-.08-30.61c-.06-20.96-.11-41.91-.16-62.86c-.02-10.59-.05-21.18-.08-31.77c-.01-6.44-.8-13.82,1.08-20.03c0-5,0-10,0-15Z" fill="#9EADA3"/>
<path d="M103,376V213c-3.1,9.4-1.05,28.56-1,39c-.67,.33-1.33,.67-2,1c0,32.33,0,64.67,0,97c-1.33,.33-2.67,.67-4,1c0,3,0,6,0,9c1.33,.67,2.67,1.33,4,2c0,4.67,0,9.33,0,14c1,.33,2,.67,3,1v-1Z" fill="#DBE0D8"/>
<path d="M390,376c.04-35.51,.08-71.03,.09-106.54c.01-11.25,1.86-35.76-1.09-45.46c0,50,0,100,0,150c-.33,0-.67,0-1,0c-1.24,2.97-2.3,5.85-3,9c.33,0,.67,0,1,0c.57-2.87,.86-3.86,3-6l1-1Z" fill="#384C44"/>
<path d="M401,380c.64-.43,2.63-1.45,3-2c1.26-1.88,.35-12.37,.34-15.04c-.12-45.32-.18-90.64-.34-135.96c-1.88,6.21-1.09,13.59-1.08,20.03c.03,10.59,.06,21.18,.08,31.77c.05,20.95,.1,41.9,.16,62.86c.03,10.11,.61,20.53,.08,30.61c-.14,2.81-2.24,5.35-2.24,7.73Z" fill="#C3D0BD"/>
<path d="M112,255h-1c-2.56,10.48-1.73,25.89-1.04,36.73c.19,3,1.05,5.77,1.12,8.77c.18,8.01-1.23,15.6-1.08,23.5c-.67-2.67-1.33-5.33-2-8c-2.09,7.63-3.44,17.39-1,25c2.67-2.67,2.08-7.54,2-11c1.21,4.15,.61,7.92,1.02,12.08c.16,1.6,.93,3.4,.98,4.92c.12,3.39-1.09,7.28-1,11c-.67-.67-1.33-1.33-2-2c-2.24,2.24-3.34,15.01-1.41,17.5c1.48,1.91,3.42,1.51,5.41,3.5c0-40.67,0-81.33,0-122Z" fill="#0D3428"/>
<path d="M269,267c6.19,2.06,14.17,5.37,17.89,11.25c2.13,3.35,4.33,7.97,7.11,10.75c1.95,1.95,2.85,3.53,4,6c.33-.67,.67-1.33,1-2c3.09,1.54,3.22,4.75,4,8c4.38-4.38-1-7.02-1-12c1,0,2,0,3,0c0-6.29-5.1-4.88-10-7c-.33,.33-.67,.67-1,1c-2.01-2.56-3.63-5.05-5-8c1-.33,2-.67,3-1c-1.5-4.49-5.3-7.35-10.19-6.78c-.82,.1-3.12,.97-3.81,.78c-1.31-.36-2.72-2.41-4-3c-1.24-.57-4.01-.3-5-1c-.4-.28-.6-1.69-1-2c-.75-.58-3.88-.8-4.9-.89c-7.08-.66-15.5-.59-22.63-.31c-5.1,.21-5.51,2.85-11.47,1.2c0,1.67,0,3.33,0,5c-2.28,.76-3.33,2.31-5,3c-.97,.4-2.93-.3-4,0c-5.13,1.44-4.38,3-11,3c1.71,2.91,2.09,3.73,1,7c-.67-1.33-1.33-2.67-2-4c-1.04,3.13-1.39,3.61,1,6c-4.36,4.36-6.51,11.05-8,17c.67,0,1.33,0,2,0c.33-1.33,.67-2.67,1-4c.83,2.89,1,4.89,1,8c1.13-1.13,1.13-1.13,2-5c.95-5.11,3.46-7.02,6-11c1.63-2.55,1.86-5.42,4.09-7.84c2.85-3.08,8.49-6.1,12.26-7.96c1.91-.93,2.94-3.14,4.82-4.01c2.09-.98,4.7-.5,6.83-1.19c1.35-.44,2.62-1.61,4-2c6.42-1.82,18.09,.14,24,3Z" fill="#E2E6E0"/>
<path d="M274,272c0-1.35-3.73-3.73-5-5c-5.91-2.86-17.58-4.82-24-3c-1.38,.39-2.65,1.56-4,2c-2.13,.69-4.74,.21-6.83,1.19c-1.88,.87-2.91,3.08-4.82,4.01c-3.77,1.86-9.41,4.88-12.26,7.96c-2.23,2.42-2.46,5.29-4.09,7.84c-2.54,3.98-5.05,5.89-6,11c.12,5.12-1.14,9.63-1.15,14.66c-.02,27.11,.09,54.23,.15,81.34c6.44-2.15,2.74-7.82,3.01-13.36c.16-3.32,1.09-6.4,1.07-9.73c-.07-7.6-1.55-15.03-1.21-22.87c.26-5.9,1.6-11.39,1.36-17.51c-.14-3.58-1.81-5.74-2.32-9.09c-1.38-9.15,.38-22.73,7.09-29.44c1.51,8.7-2.23,15.49-2.23,24.11c-.01,25.63,.12,51.26,.23,76.89c.67,0,1.33,0,2,0c-.1-5.85,1.11-11.21,1.12-16.97c.08-23.67-.06-47.35-.12-71.03c.33,0,.67,0,1,0c3.5-7,5.54-18.18,14-21c5.3-5.57,7.29-4.87,14-7c6.67-2.12,10-2.12,17-1c-5.54-7.07-16.28-1.87-23,0c-1.59,.44-3.08,.33-4.61,1.15c-2.25,1.19-3.46,3.7-5.39,4.85c-.9,.54-2.03,.59-2.95,1.26c-1.82,1.33-3.33,4.81-5.05,5.74c-.59,.32-4.16,0-5,0c1.37-3.05,2.82-4.58,5-7c15.05-16.74,32.47-17.16,53-10Z" fill="#0A2018"/>
<path d="M294,289c-2.78-2.78-4.98-7.4-7.11-10.75c-3.72-5.88-11.7-9.19-17.89-11.25c1.27,1.27,5,3.65,5,5c9.31,5.28,14.07,12.81,18.02,22.51c1.09,2.69,1.93,6.44,3.98,8.49c4.34,6.54,1.82,29.18,1.92,37.84c.04,3.09,1.11,5.95,1.18,9.08c.28,12.66-.05,25.41-.1,38.08c0,1.67,0,3.33,0,5c.33,0,.67,0,1,0c.09-22.85,.11-45.7,.2-68.55c.01-3.17,.82-17.47-.2-19.45c-.4-.77-1.47-1.33-1.91-2.23c-1.67-3.43-3.45-9.94-4.09-13.77Z" fill="#384C44"/>
<path d="M296,303c-2.05-2.05-2.89-5.8-3.98-8.49c-3.95-9.7-8.71-17.23-18.02-22.51c-20.53-7.16-37.95-6.74-53,10c-2.18,2.42-3.63,3.95-5,7c.84,0,4.41,.32,5,0c1.72-.93,3.23-4.41,5.05-5.74c.92-.67,2.05-.72,2.95-1.26c1.93-1.15,3.14-3.66,5.39-4.85c1.53-.82,3.02-.71,4.61-1.15c6.72-1.87,17.46-7.07,23,0c-7-1.12-10.33-1.12-17,1c-6.71,2.13-8.7,1.43-14,7c2.53-.84,2.96-1.63,5-3c5-3.35,18.9-5.03,24.76-4.06c7.33,1.21,17.61,9.49,21.09,15.97c1.22,2.27,1.21,4.84,2.28,6.99c.94,1.89,2.23,2.79,2.8,5.08c1.82,7.3,.37,18.09,.35,25.77c-.05,21.08-.17,42.17-.28,63.25c-23,0-46,0-69,0c0-.33,0-.67,0-1c-.33,0-.67,0-1,0c0-29.33,0-58.67,0-88c-.33,0-.67,0-1,0c.06,23.68,.2,47.36,.12,71.03c-.01,5.76-1.22,11.12-1.12,16.97c-.67,0-1.33,0-2,0c-.11-25.63-.24-51.26-.23-76.89c0-8.62,3.74-15.41,2.23-24.11c-6.71,6.71-8.47,20.29-7.09,29.44c.51,3.35,2.18,5.51,2.32,9.09c.24,6.12-1.1,11.61-1.36,17.51c-.34,7.84,1.14,15.27,1.21,22.87c.02,3.33-.91,6.41-1.07,9.73c-.27,5.54,3.43,11.21-3.01,13.36c-.06-27.11-.17-54.23-.15-81.34c.01-5.03,1.27-9.54,1.15-14.66c-.87,3.87-.87,3.87-2,5c-1.59,12.32-1.11,24.92-1.09,37.31c.02,17.9,.05,35.79,.09,53.69c-23.67,0-47.33,0-71,0c15.49,4.79,61.78-3.81,72,3c-9.73,1.77-20.08,1.15-29.95,1.13c-12.49-.01-24.69,.36-37.05-1.13c-2.48-.3-4.71,.33-7.2-.58c-6.81-2.5-13.83-8.8-16.8-15.42c-1.61,1.61-.49,3.87,0,6c-1-.67-2-1.33-3-2c1.38,8.76,9.88,14.52,18.29,15.89c2.46,.4,4.3,2.08,7.13,2.27c8.71,.57,17.06-2.43,25.82-2.29c5.99,.09,12.43,2,18.51,2.22c20.16,.74,41.08,.59,61.25,.04c8.37-.23,16.33-2.86,24.99-2.59c5.8,.18,11.12,2.09,16.86,2.46c11.56,.73,23.49,.12,35.08,.13c12.34,0,24.92,.76,37.07-1.13c3.03-.47,6.06,.57,9,1c3.9,.57,14.68-2.78,18-5l1-1c3.95-3.12,6.99-4.95,8-10c-1,1-2,2-3,3c-.67-1-1.33-2-2-3c-3.13,3.39-5.57,5.61-10,7c-1.41,1.41-3.08,2.37-5.03,2.82c-3.31,.77-6.67-.24-9.97,.18c-5.59,.71-11.28,1.86-17,1c-2.03-.31-3.9-1.04-6-1.12c-12.56-.5-25.41,.06-38,.12c0-.67,0-1.33,0-2c25.11,.07,51.27,1.93,76-2l1-1l3-4c-3.88,1.29-6.76,5-11,5c0,.33,0,.67,0,1c-15.37,.04-30.74,.07-46.1,.09c-7.43,.01-16.8,1.11-23.9-1.09c-.33,0-.67,0-1,0c0-1.67,0-3.33,0-5c-.33,1.33-.67,2.67-1,4c-.67,0-1.33,0-2,0c0-17.24-.3-34.54-.1-51.77c.04-3.24,1.11-6.18,1.23-9.36c.34-9.15,.08-18.8-1.13-27.87Zm-7,4c1.44,5.23,.79,10.4,.98,15.72c.09,2.31,.89,4.5,1.06,6.83c.43,6.13,.3,12.79,.09,18.95c-.16,4.61-1.25,8.92-1.26,13.68c-.01,3.8,1.1,7.23,1.64,10.95c1.1,7.6,.33,13.5-1.51,20.87c-1.62-5.78-2.81-11.96-2.33-17.98c.33-4.09,1.44-7.75,1.44-11.93c.05-19.03-.05-38.06-.11-57.09Zm-71,90c3.1-.84,5.78-1.09,9-1c0-.33,0-.66,0-1c13.09-.08,26.18-.14,39.26-.18c5.24-.02,11.92-.86,16.96,.15c1.39,.28,2.62,1.26,3.78,2.03c-14.06,2.31-31.96,2.15-46,0c-7.03-1.08-15.8-.06-23,0Z" fill="#153B2F"/>
<path d="M218,393c0,.33,0,.67,0,1c23,0,46,0,69,0c.11-21.08,.23-42.17,.28-63.25c.02-7.68,1.47-18.47-.35-25.77c-.57-2.29-1.86-3.19-2.8-5.08c-1.07-2.15-1.06-4.72-2.28-6.99c-3.48-6.48-13.76-14.76-21.09-15.97c-5.86-.97-19.76,.71-24.76,4.06c-2.04,1.37-2.47,2.16-5,3c-8.46,2.82-10.5,14-14,21c0,29.33,0,58.67,0,88c.33,0,.67,0,1,0Zm0,0c-.08-18.82-.12-37.65-.17-56.47c-.03-9.19-.87-19.19,.07-28.29c.4-3.88,2.44-7.27,3.1-11.24c1,0,2,0,3,0c-3.99,8.24-2.64,17.01-2.98,25.8c-.3,7.7-1.45,15.08-1.15,22.97c.16,4.19,1.43,7.89,1.26,12.23c-.23,6.04-1.28,11.79-1.26,18.02c.01,4.8,1.26,9.18,1.13,13.98c20.8-.1,41.27,1.16,62,1c2.3-9.3,1.1-20.58,1.09-30.18c-.02-18.94-.05-37.88-.09-56.82c1.24,1.87,1.89,3.97,2.12,6.2c.92,8.81,.08,18.57,.06,27.48c-.06,18.44-.11,36.88-.18,55.32c-22.67,0-45.33,0-68,0Z" fill="#C3D0BD"/>
<path d="M298,295c-1.15-2.47-2.05-4.05-4-6c.64,3.83,2.42,10.34,4.09,13.77c.44,.9,1.51,1.46,1.91,2.23c1.02,1.98,.21,16.28,.2,19.45c-.09,22.85-.11,45.7-.2,68.55c7.1,2.2,16.47,1.1,23.9,1.09c15.36-.02,30.73-.05,46.1-.09c0-.33,0-.67,0-1c-14.45,.04-28.9,.07-43.36,.09c-8.35,.01-17.48,.83-25.64-1.09c.09-22.71,.15-45.43,.19-68.14c.01-3.85,1.03-18.11-.19-20.86c-1.63-3.66-2.34-2.96-3-8Z" fill="#9EADA3"/>
<path d="M218,393c22.67,0,45.33,0,68,0c.07-18.44,.12-36.88,.18-55.32c.02-8.91,.86-18.67-.06-27.48c-.23-2.23-.88-4.33-2.12-6.2c.04,18.94,.07,37.88,.09,56.82c.01,9.6,1.21,20.88-1.09,30.18c-20.73,.16-41.2-1.1-62-1c.13-4.8-1.12-9.18-1.13-13.98c-.02-6.23,1.03-11.98,1.26-18.02c.17-4.34-1.1-8.04-1.26-12.23c-.3-7.89,.85-15.27,1.15-22.97c.34-8.79-1.01-17.56,2.98-25.8c-1,0-2,0-3,0c-.66,3.97-2.7,7.36-3.1,11.24c-.94,9.1-.1,19.1-.07,28.29c.05,18.82,.09,37.65,.17,56.47Z" fill="#E2E6E0"/>
<path d="M133,394c23.67,0,47.33,0,71,0c-.04-17.9-.07-35.79-.09-53.69c-.02-12.39-.5-24.99,1.09-37.31c-5.86,10.55-3.04,73-3,89c-1-.33-2-.67-3-1c0-.33,0-.67,0-1c-2.99,0-5.77-1.04-8.8-1.12c-19.32-.54-38.86,.06-58.2,.12c-8.87-3.27-8.05-6.62-12-14c.33,2.33,.67,4.67,1,7c-1-1-2-2-3-3v3c4.78,4.54,7.58,12,15,12Z" fill="#DBE0D8"/>
<path d="M299,388c.05-12.67,.38-25.42,.1-38.08c-.07-3.13-1.14-5.99-1.18-9.08c-.1-8.66,2.42-31.3-1.92-37.84c1.21,9.07,1.47,18.72,1.13,27.87c-.12,3.18-1.19,6.12-1.23,9.36c-.2,17.23,.1,34.53,.1,51.77c.67,0,1.33,0,2,0c.33-1.33,.67-2.67,1-4Z" fill="#0A2018"/>
<path d="M199,390c.33,0,.67,0,1,0c0-19.51,.07-39.02,.09-58.53c.01-8.31,1.46-19.61-1.09-27.47c.05,4.72,.67,10.38,0,15c-.2,1.39-.79,2.6-.78,4.06c.01,2.21,.85,4.05,.69,6.38c-.38,5.53-1.93,10.88-1.94,16.43c-.03,8.63,2.45,16.66,2.11,25.33c-.2,5.19-3.08,8.97-3.08,13.8c-.67-1-1.33-2-2-3c-1.02,1.52-3.08,4.52-5,5c-1.18,.29-4.44-1.04-6.22-.91c-4.77,.35-9.31,1.87-14.09,1.98c-10.37,.25-27.31-2.19-36.69,.93c19.34-.06,38.88-.66,58.2-.12c3.03,.08,5.81,1.12,8.8,1.12Z" fill="#EFEEE5"/>
<g fill="#0A2018">
<path d="M289,307c.06,19.03,.16,38.06,.11,57.09c0,4.18-1.11,7.84-1.44,11.93c-.48,6.02,.71,12.2,2.33,17.98c1.84-7.37,2.61-13.27,1.51-20.87c-.54-3.72-1.65-7.15-1.64-10.95c.01-4.76,1.1-9.07,1.26-13.68c.21-6.16,.34-12.82-.09-18.95c-.17-2.33-.97-4.52-1.06-6.83c-.19-5.32,.46-10.49-.98-15.72Z"/>
<path d="M377,393h0c-24.73,3.93-50.89,2.07-76,2c0,.67,0,1.33,0,2c12.59-.06,25.44-.62,38-.12c2.1,.08,3.97,.81,6,1.12c5.72,.86,11.41-.29,17-1c3.3-.42,6.66,.59,9.97-.18c1.95-.45,3.62-1.41,5.03-2.82v-1Z"/>
</g>
<path d="M133,405c-4.76,0-3.07-.74-6.52-1.98c-1.6-.57-4.08-.32-5.48-1.02c-4.96-2.48-8.35-8.35-12-12c-.38-.38-1.72-.61-2-1c-2.24-3.18,.62-6.58-4-10c-1.91,5.34,2.71,13.06,6.82,16.61c1.09,.95,3.43,1.62,4.18,2.39c.51,.52,.54,2.33,1,3c2.34,3.43,10.14,5.75,14.02,6.52c7.98,1.59,17.59,.6,25.76,.59c17.32-.01,34.63-.01,51.94-.02c55.76-.02,111.52-.05,167.28-.09c0-.33,0-.67,0-1s0-.67,0-1c-31.47-.06-62.99-.43-94.46-.12c-5.98,.06-11.84,1.26-18,1.26c-5.87-.01-12.8,.73-18.54-.14c-2.06-.31-3.94-1.04-6.07-1.12c-10.46-.4-21.11,.06-31.59,.08c-15.53,.03-31.07,.06-46.6,.11c-8.12,.02-17.93,1.16-25.74-1.07Z" fill="#81918A"/>
<path d="M218,397c7.2-.06,15.97-1.08,23,0c14.04,2.15,31.94,2.31,46,0c-1.16-.77-2.39-1.75-3.78-2.03c-5.04-1.01-11.72-.17-16.96-.15c-13.08,.04-26.17,.1-39.26,.18c0,.34,0,.67,0,1c-3.22-.09-5.9,.16-9,1Z" fill="#0A2018"/>
<path d="M384,400h-1c-3.65,1.96-9.07,4.04-13.12,4.73c-5.83,1-12.52,.4-18.45,.39c-11.65-.01-23.29-.01-34.94-.02c-61.16-.04-122.33-.05-183.49-.1c7.81,2.23,17.62,1.09,25.74,1.07c15.53-.05,31.07-.08,46.6-.11c10.48-.02,21.13-.48,31.59-.08c2.13,.08,4.01,.81,6.07,1.12c5.74,.87,12.67,.13,18.54,.14c6.16,0,12.02-1.2,18-1.26c31.47-.31,62.99,.06,94.46,.12c0,.33,0,.67,0,1h2c0-.67,0-1.33,0-2c2.94-1.52,6.55-2.1,8-5Z" fill="#384C44"/>
</svg>
